<?xml version="1.0" encoding="UTF-8"?>
<svg id="Camada_1" data-name="Camada 1" xmlns="http://www.w3.org/2000/svg" xmlns:xlink="http://www.w3.org/1999/xlink" viewBox="0 0 109.25 137.95">
  <defs>
    <style>
      .cls-1 {
        fill: url(#Gradiente_sem_nome-22);
      }

      .cls-2 {
        fill: url(#Gradiente_sem_nome-3);
      }

      .cls-3 {
        fill: url(#Gradiente_sem_nome);
      }

      .cls-4 {
        fill: url(#Gradiente_sem_nome-14);
      }

      .cls-5 {
        fill: url(#Gradiente_sem_nome-17);
      }

      .cls-6 {
        fill: url(#Gradiente_sem_nome-4);
      }

      .cls-7 {
        fill: url(#Gradiente_sem_nome-21);
      }

      .cls-8 {
        fill: url(#Gradiente_sem_nome-6);
      }

      .cls-9 {
        fill: url(#Gradiente_sem_nome-15);
      }

      .cls-10 {
        fill: url(#Gradiente_sem_nome-27);
      }

      .cls-11 {
        fill: url(#Gradiente_sem_nome-20);
      }

      .cls-12 {
        fill: url(#Gradiente_sem_nome-7);
      }

      .cls-13 {
        fill: url(#Gradiente_sem_nome-24);
      }

      .cls-14 {
        fill: url(#Gradiente_sem_nome-12);
      }

      .cls-15 {
        fill: url(#Gradiente_sem_nome-18);
      }

      .cls-16 {
        fill: url(#Gradiente_sem_nome-19);
      }

      .cls-17 {
        fill: url(#Gradiente_sem_nome-23);
      }

      .cls-18 {
        fill: url(#Gradiente_sem_nome-9);
      }

      .cls-19 {
        fill: url(#Gradiente_sem_nome-28);
      }

      .cls-20 {
        fill: url(#Gradiente_sem_nome-11);
      }

      .cls-21 {
        fill: url(#Gradiente_sem_nome-10);
      }

      .cls-22 {
        fill: url(#Gradiente_sem_nome-8);
      }

      .cls-23 {
        fill: url(#Gradiente_sem_nome-29);
      }

      .cls-24 {
        fill: url(#Gradiente_sem_nome-2);
      }

      .cls-25 {
        fill: url(#Gradiente_sem_nome-16);
      }

      .cls-26 {
        fill: url(#Gradiente_sem_nome-25);
      }

      .cls-27 {
        fill: url(#Gradiente_sem_nome-26);
      }

      .cls-28 {
        fill: url(#Gradiente_sem_nome-5);
      }

      .cls-29 {
        fill: url(#Gradiente_sem_nome-13);
      }
    </style>
    <linearGradient id="Gradiente_sem_nome" data-name="Gradiente sem nome" x1="54.71" y1="105.12" x2="54.71" y2="3.48" gradientTransform="translate(0 105.12) scale(1 -1)" gradientUnits="userSpaceOnUse">
      <stop offset="0" stop-color="#d2ab4b"/>
      <stop offset="1" stop-color="#fde19d"/>
    </linearGradient>
    <linearGradient id="Gradiente_sem_nome-2" data-name="Gradiente sem nome" x1="20.35" y1="119.09" x2="27.84" y2="119.09" gradientTransform="matrix(1, 0, 0, 1, 0, 0)" xlink:href="#Gradiente_sem_nome"/>
    <linearGradient id="Gradiente_sem_nome-3" data-name="Gradiente sem nome" x1="31.93" y1="120.27" x2="40.93" y2="120.27" gradientTransform="matrix(1, 0, 0, 1, 0, 0)" xlink:href="#Gradiente_sem_nome"/>
    <linearGradient id="Gradiente_sem_nome-4" data-name="Gradiente sem nome" x1="42.16" y1="120.3" x2="47.88" y2="120.3" gradientTransform="matrix(1, 0, 0, 1, 0, 0)" xlink:href="#Gradiente_sem_nome"/>
    <linearGradient id="Gradiente_sem_nome-5" data-name="Gradiente sem nome" x1="49.17" y1="119.02" x2="52.2" y2="119.02" gradientTransform="matrix(1, 0, 0, 1, 0, 0)" xlink:href="#Gradiente_sem_nome"/>
    <linearGradient id="Gradiente_sem_nome-6" data-name="Gradiente sem nome" x1="53.09" y1="119.02" x2="58.6" y2="119.02" gradientTransform="matrix(1, 0, 0, 1, 0, 0)" xlink:href="#Gradiente_sem_nome"/>
    <linearGradient id="Gradiente_sem_nome-7" data-name="Gradiente sem nome" x1="59.79" y1="120.3" x2="65.76" y2="120.3" gradientTransform="matrix(1, 0, 0, 1, 0, 0)" xlink:href="#Gradiente_sem_nome"/>
    <linearGradient id="Gradiente_sem_nome-8" data-name="Gradiente sem nome" x1="67.1" y1="120.3" x2="70.85" y2="120.3" gradientTransform="matrix(1, 0, 0, 1, 0, 0)" xlink:href="#Gradiente_sem_nome"/>
    <linearGradient id="Gradiente_sem_nome-9" data-name="Gradiente sem nome" x1="74.22" y1="119.06" x2="79.98" y2="119.06" gradientTransform="matrix(1, 0, 0, 1, 0, 0)" xlink:href="#Gradiente_sem_nome"/>
    <linearGradient id="Gradiente_sem_nome-10" data-name="Gradiente sem nome" x1="81.24" y1="120.3" x2="86.37" y2="120.3" gradientTransform="matrix(1, 0, 0, 1, 0, 0)" xlink:href="#Gradiente_sem_nome"/>
    <linearGradient id="Gradiente_sem_nome-11" data-name="Gradiente sem nome" x1="0" y1="134.7" x2="4.85" y2="134.7" gradientTransform="matrix(1, 0, 0, 1, 0, 0)" xlink:href="#Gradiente_sem_nome"/>
    <linearGradient id="Gradiente_sem_nome-12" data-name="Gradiente sem nome" x1="5.94" y1="134.74" x2="11.36" y2="134.74" gradientTransform="matrix(1, 0, 0, 1, 0, 0)" xlink:href="#Gradiente_sem_nome"/>
    <linearGradient id="Gradiente_sem_nome-13" data-name="Gradiente sem nome" x1="12.86" y1="133.42" x2="15.89" y2="133.42" gradientTransform="matrix(1, 0, 0, 1, 0, 0)" xlink:href="#Gradiente_sem_nome"/>
    <linearGradient id="Gradiente_sem_nome-14" data-name="Gradiente sem nome" x1="16.26" y1="133.38" x2="18.8" y2="133.38" gradientTransform="matrix(1, 0, 0, 1, 0, 0)" xlink:href="#Gradiente_sem_nome"/>
    <linearGradient id="Gradiente_sem_nome-15" data-name="Gradiente sem nome" x1="20.48" y1="134.67" x2="25.98" y2="134.67" gradientTransform="matrix(1, 0, 0, 1, 0, 0)" xlink:href="#Gradiente_sem_nome"/>
    <linearGradient id="Gradiente_sem_nome-16" data-name="Gradiente sem nome" x1="27.14" y1="133.53" x2="32.28" y2="133.53" gradientTransform="matrix(1, 0, 0, 1, 0, 0)" xlink:href="#Gradiente_sem_nome"/>
    <linearGradient id="Gradiente_sem_nome-17" data-name="Gradiente sem nome" x1="33.79" y1="134.7" x2="37.54" y2="134.7" gradientTransform="matrix(1, 0, 0, 1, 0, 0)" xlink:href="#Gradiente_sem_nome"/>
    <linearGradient id="Gradiente_sem_nome-18" data-name="Gradiente sem nome" x1="38.07" y1="133.38" x2="40.62" y2="133.38" gradientTransform="matrix(1, 0, 0, 1, 0, 0)" xlink:href="#Gradiente_sem_nome"/>
    <linearGradient id="Gradiente_sem_nome-19" data-name="Gradiente sem nome" x1="41.92" y1="134.7" x2="47.05" y2="134.7" gradientTransform="matrix(1, 0, 0, 1, 0, 0)" xlink:href="#Gradiente_sem_nome"/>
    <linearGradient id="Gradiente_sem_nome-20" data-name="Gradiente sem nome" x1="51.2" y1="134.67" x2="56.7" y2="134.67" gradientTransform="matrix(1, 0, 0, 1, 0, 0)" xlink:href="#Gradiente_sem_nome"/>
    <linearGradient id="Gradiente_sem_nome-21" data-name="Gradiente sem nome" x1="57.9" y1="134.7" x2="63.86" y2="134.7" gradientTransform="matrix(1, 0, 0, 1, 0, 0)" xlink:href="#Gradiente_sem_nome"/>
    <linearGradient id="Gradiente_sem_nome-22" data-name="Gradiente sem nome" x1="65.21" y1="134.7" x2="68.95" y2="134.7" gradientTransform="matrix(1, 0, 0, 1, 0, 0)" xlink:href="#Gradiente_sem_nome"/>
    <linearGradient id="Gradiente_sem_nome-23" data-name="Gradiente sem nome" x1="69.5" y1="133.46" x2="75.26" y2="133.46" gradientTransform="matrix(1, 0, 0, 1, 0, 0)" xlink:href="#Gradiente_sem_nome"/>
    <linearGradient id="Gradiente_sem_nome-24" data-name="Gradiente sem nome" x1="76.58" y1="134.7" x2="82.31" y2="134.7" gradientTransform="matrix(1, 0, 0, 1, 0, 0)" xlink:href="#Gradiente_sem_nome"/>
    <linearGradient id="Gradiente_sem_nome-25" data-name="Gradiente sem nome" x1="83.29" y1="134.7" x2="87.91" y2="134.7" gradientTransform="matrix(1, 0, 0, 1, 0, 0)" xlink:href="#Gradiente_sem_nome"/>
    <linearGradient id="Gradiente_sem_nome-26" data-name="Gradiente sem nome" x1="88.5" y1="133.83" x2="92.75" y2="133.83" gradientTransform="matrix(1, 0, 0, 1, 0, 0)" xlink:href="#Gradiente_sem_nome"/>
    <linearGradient id="Gradiente_sem_nome-27" data-name="Gradiente sem nome" x1="93.23" y1="133.38" x2="95.77" y2="133.38" gradientTransform="matrix(1, 0, 0, 1, 0, 0)" xlink:href="#Gradiente_sem_nome"/>
    <linearGradient id="Gradiente_sem_nome-28" data-name="Gradiente sem nome" x1="97.45" y1="134.67" x2="102.95" y2="134.67" gradientTransform="matrix(1, 0, 0, 1, 0, 0)" xlink:href="#Gradiente_sem_nome"/>
    <linearGradient id="Gradiente_sem_nome-29" data-name="Gradiente sem nome" x1="104.11" y1="134.7" x2="109.25" y2="134.7" gradientTransform="matrix(1, 0, 0, 1, 0, 0)" xlink:href="#Gradiente_sem_nome"/>
  </defs>
  <path class="cls-3" d="m54.71,0c-8.78,0-16.51,5.8-18.99,14.23-2.63-1.19-5.4-1.83-8.28-1.83-5.26,0-10.3,2.09-14.02,5.81-3.72,3.72-5.81,8.76-5.81,14.02.01,4.39,1.48,8.66,4.17,12.13,2.69,3.47,6.46,5.95,10.71,7.06v35.35h64.46v-35.35c8.73-2.28,14.87-10.16,14.87-19.19,0-5.26-2.09-10.3-5.81-14.02-3.72-3.72-8.76-5.81-14.02-5.81-2.88,0-5.65.64-8.28,1.83C71.22,5.8,63.49,0,54.71,0Zm-2.48,44.62h4.96v34.71h-4.96v-34.71Zm-14.88,9.92h4.96v24.79h-4.96v-24.79Zm29.75,0h4.96v24.79h-4.96v-24.79Zm-44.62,37.19v4.96c0,1.32.52,2.58,1.45,3.51.93.93,2.19,1.45,3.51,1.45h54.54c1.32,0,2.58-.52,3.51-1.45.93-.93,1.45-2.19,1.45-3.51v-4.96H22.48Z"/>
  <g>
    <path class="cls-24" d="m24.1,123.55c-.65,0-1.21-.11-1.68-.34-.47-.22-.86-.53-1.16-.93-.3-.4-.53-.86-.68-1.4s-.22-1.13-.22-1.77.07-1.23.22-1.78.37-1.02.68-1.42c.3-.4.69-.71,1.16-.94.47-.22,1.03-.34,1.68-.34s1.21.11,1.68.34c.47.22.86.54,1.16.94.3.4.53.87.68,1.42s.22,1.14.22,1.78-.07,1.23-.22,1.77-.37,1.01-.68,1.4c-.3.4-.69.71-1.16.93-.47.22-1.03.34-1.68.34Zm0-1.46c1.24,0,1.86-.99,1.86-2.98,0-.99-.15-1.74-.45-2.23-.3-.5-.77-.74-1.4-.74-1.26,0-1.88.99-1.88,2.98s.62,2.98,1.87,2.98Z"/>
    <path class="cls-2" d="m31.93,117.2c.11-.02.22-.04.34-.05.11-.01.24-.02.37-.02s.26,0,.36.02c.1.01.21.03.32.05.02.04.05.1.07.17.02.08.04.16.05.24s.03.17.04.25c.01.08.02.15.03.2.06-.12.15-.24.25-.36s.23-.23.37-.32c.14-.1.31-.17.49-.23.18-.06.38-.09.61-.09.97,0,1.59.37,1.86,1.1.16-.3.39-.55.68-.77.29-.22.66-.33,1.11-.33.7,0,1.22.19,1.55.58.33.39.5.99.5,1.82v3.95c-.29.05-.57.07-.85.07s-.56-.02-.85-.07v-3.5c0-.43-.05-.76-.16-1s-.33-.35-.65-.35c-.14,0-.27.02-.4.06s-.25.11-.36.22c-.11.11-.2.26-.26.46-.07.2-.1.45-.1.76v3.35c-.29.05-.57.07-.85.07s-.56-.02-.85-.07v-3.5c0-.43-.05-.76-.16-1-.11-.23-.33-.35-.65-.35-.14,0-.27.02-.41.06-.14.04-.26.12-.37.23s-.19.28-.26.49c-.06.21-.1.48-.1.82v3.25c-.29.05-.57.07-.85.07s-.56-.02-.85-.07v-6.2Z"/>
    <path class="cls-6" d="m43.83,120.82c.03.48.2.83.5,1.04.3.22.7.32,1.2.32.27,0,.55-.03.83-.08s.55-.13.81-.22c.09.16.16.35.23.58.06.22.1.46.11.72-.62.24-1.33.36-2.11.36-.58,0-1.07-.08-1.48-.24-.41-.16-.75-.38-1.01-.67-.26-.28-.45-.62-.58-1.01-.12-.39-.19-.82-.19-1.28s.06-.88.19-1.28c.13-.4.32-.75.57-1.04s.56-.53.94-.7.81-.26,1.3-.26c.43,0,.82.08,1.15.23.34.15.62.36.86.62s.41.58.53.94.18.75.18,1.17c0,.15,0,.3-.02.45-.01.15-.03.27-.04.35h-3.98Zm2.44-1.19c-.02-.38-.12-.69-.32-.93-.2-.24-.47-.35-.82-.35-.4,0-.7.11-.91.34s-.33.54-.37.95h2.42Z"/>
    <path class="cls-28" d="m49.17,114.63c.29-.05.57-.07.85-.07s.55.02.84.07v6.3c0,.25.01.45.04.6.03.15.07.27.13.35.06.08.14.14.23.17.1.03.22.05.36.05.06,0,.13,0,.21-.01s.15-.02.22-.04c.09.33.13.65.13.96v.17c0,.05,0,.11-.02.17-.13.04-.28.07-.46.08-.18.02-.35.02-.5.02-.62,0-1.11-.17-1.48-.51-.37-.34-.56-.89-.56-1.66v-6.67Z"/>
    <path class="cls-8" d="m53.09,114.63c.14-.02.28-.04.42-.05.14,0,.28-.01.42-.01s.28,0,.42.01c.14,0,.29.02.43.05v3.3c.06-.07.13-.16.22-.26.09-.1.21-.2.34-.29.14-.09.3-.17.49-.23.19-.06.41-.1.66-.1.69,0,1.21.19,1.57.58.36.38.53.99.53,1.81v3.97c-.14.02-.29.04-.43.05-.14,0-.28.01-.42.01s-.28,0-.42-.01c-.14,0-.29-.02-.43-.05v-3.52c0-.43-.07-.76-.2-1-.14-.23-.37-.35-.7-.35-.14,0-.28.02-.42.06-.14.04-.27.12-.39.23-.12.12-.21.28-.29.49-.08.21-.11.48-.11.82v3.26c-.14.02-.29.04-.43.05-.14,0-.28.01-.42.01s-.27,0-.41-.01c-.14,0-.28-.02-.43-.05v-8.78Z"/>
    <path class="cls-12" d="m62.77,123.55c-.5,0-.94-.08-1.31-.25-.37-.16-.68-.39-.92-.68s-.43-.63-.55-1.03c-.12-.39-.19-.82-.19-1.27s.06-.88.19-1.28c.12-.4.31-.75.55-1.04s.55-.52.92-.69.81-.25,1.31-.25.94.08,1.32.25.69.4.94.69c.25.29.43.64.55,1.04.12.4.18.83.18,1.28s-.06.88-.18,1.27c-.12.39-.3.73-.55,1.03-.25.29-.56.52-.94.68-.38.16-.82.25-1.32.25Zm0-1.3c.45,0,.77-.17.97-.5.2-.33.29-.81.29-1.43s-.1-1.1-.29-1.43c-.2-.33-.52-.5-.97-.5s-.76.17-.95.5c-.2.33-.29.81-.29,1.43s.1,1.1.29,1.43c.2.33.51.5.95.5Z"/>
    <path class="cls-22" d="m67.1,117.2c.12-.02.23-.04.34-.05.11-.01.23-.02.35-.02.12,0,.24,0,.35.02.12.02.23.04.34.06.02.04.05.1.07.17.02.08.04.16.05.24.02.08.03.17.04.25.01.08.02.15.03.21.18-.25.39-.47.65-.67.26-.2.58-.29.96-.29.08,0,.17,0,.28.01.1,0,.18.02.23.04.02.08.03.17.04.28,0,.1.01.21.01.32,0,.14,0,.28-.02.44s-.03.31-.07.46c-.09-.02-.19-.02-.29-.02h-.2c-.14,0-.29.01-.46.04-.17.03-.33.1-.48.22-.15.12-.28.3-.38.54-.1.24-.15.58-.15,1.01v2.95c-.14.02-.29.04-.43.05-.14,0-.28.01-.42.01s-.27,0-.41-.01c-.14,0-.29-.02-.44-.05v-6.22Z"/>
    <path class="cls-18" d="m78.29,114.63c.14-.02.29-.04.43-.05.14,0,.28-.01.41-.01s.28,0,.42.01c.14,0,.29.02.43.05v8.57c-.38.11-.76.2-1.15.26-.39.06-.86.09-1.41.09-.42,0-.83-.06-1.22-.17-.39-.12-.73-.3-1.03-.55s-.53-.58-.7-.98c-.17-.4-.26-.89-.26-1.46,0-.46.07-.89.22-1.29.15-.4.36-.75.64-1.05.28-.3.61-.53,1-.7.39-.17.83-.26,1.31-.26.14,0,.29,0,.45.02.16.01.31.04.45.08v-2.54Zm0,3.85c-.16-.04-.29-.07-.39-.08-.1-.01-.23-.02-.38-.02-.26,0-.49.05-.69.16-.2.11-.36.25-.49.43s-.22.39-.28.64c-.06.24-.09.5-.09.76,0,.33.04.61.12.83.08.23.19.41.33.55.14.14.31.23.5.29.19.06.4.09.62.09.14,0,.26,0,.37-.02.11-.01.24-.04.37-.08v-3.56Z"/>
    <path class="cls-21" d="m84.72,119.32c0-.19-.03-.35-.1-.47-.06-.12-.15-.21-.26-.28-.11-.07-.25-.11-.41-.14-.16-.02-.35-.04-.55-.04-.43,0-.89.08-1.38.25-.11-.21-.2-.4-.25-.59-.06-.18-.08-.4-.08-.66.35-.12.7-.21,1.06-.26.35-.06.68-.08.98-.08.83,0,1.48.2,1.95.6.47.4.7,1.04.7,1.92v3.6c-.28.09-.62.17-1.02.25-.4.08-.85.12-1.36.12-.41,0-.78-.04-1.12-.11-.34-.07-.63-.19-.88-.36s-.43-.38-.56-.65c-.13-.26-.2-.59-.2-.97s.08-.71.25-.97.38-.47.64-.62.55-.27.87-.34c.32-.07.64-.1.96-.1.23,0,.49.01.77.04v-.14Zm0,1.24c-.1-.02-.2-.03-.31-.04-.11-.01-.21-.02-.3-.02-.39,0-.7.07-.93.21-.23.14-.34.37-.34.68,0,.21.04.37.13.48.09.11.19.19.32.25s.26.08.4.1c.14.01.26.02.37.02.12,0,.24,0,.36-.03.12-.02.22-.04.31-.05v-1.58Z"/>
    <path class="cls-20" d="m4.51,136.34c.1.16.18.35.24.56.06.21.1.46.1.75-.32.13-.62.21-.9.25-.28.04-.57.05-.88.05-.52,0-.97-.08-1.36-.25-.38-.16-.7-.39-.95-.68s-.44-.63-.57-1.03c-.13-.4-.19-.83-.19-1.29s.06-.88.19-1.27c.12-.39.31-.74.56-1.03.25-.3.57-.53.94-.7s.81-.25,1.31-.25c.18,0,.34,0,.49.01s.29.02.43.05c.14.02.27.06.41.1.14.04.29.09.46.16,0,.18-.02.39-.07.62-.05.23-.12.45-.23.65-.24-.08-.45-.13-.63-.16-.18-.03-.39-.04-.62-.04-.5,0-.87.16-1.12.49-.25.32-.38.79-.38,1.39,0,.65.14,1.12.41,1.42s.64.44,1.1.44c.12,0,.23,0,.33,0s.2-.01.29-.03c.1-.02.19-.04.29-.07s.22-.07.35-.12Z"/>
    <path class="cls-14" d="m5.94,131.6c.29-.05.57-.07.85-.07s.56.02.85.07v3.29c0,.33.03.6.08.81.05.21.13.38.24.5s.24.21.4.26c.16.05.35.08.56.08.3,0,.54-.03.74-.08v-4.86c.29-.05.57-.07.84-.07s.56.02.85.07v5.96c-.26.09-.59.17-1.01.26s-.86.13-1.31.13c-.41,0-.8-.03-1.18-.1-.38-.06-.71-.2-.99-.41-.28-.21-.51-.51-.68-.91-.17-.4-.25-.93-.25-1.6v-3.34Z"/>
    <path class="cls-29" d="m12.86,129.03c.29-.05.57-.07.85-.07s.55.02.84.07v6.3c0,.25.01.45.04.6.03.15.07.27.13.35.06.08.14.14.23.17.1.03.22.05.36.05.06,0,.13,0,.21-.01s.15-.02.22-.04c.09.33.13.65.13.96v.17c0,.05,0,.11-.02.17-.13.04-.28.07-.46.08-.18.02-.35.02-.5.02-.62,0-1.11-.17-1.48-.51-.37-.34-.56-.89-.56-1.66v-6.67Z"/>
    <path class="cls-4" d="m17.14,132.9h-.8c-.02-.1-.04-.21-.05-.33-.01-.12-.02-.23-.02-.33,0-.22.02-.43.07-.64h2.47v6.2c-.29.05-.57.07-.84.07s-.54-.02-.83-.07v-4.91Zm-.25-2.34c-.05-.27-.07-.54-.07-.8s.02-.52.07-.8c.14-.02.28-.04.44-.05.16-.01.3-.02.43-.02.14,0,.28,0,.44.02s.31.03.44.05c.02.14.04.27.05.4,0,.13.01.27.01.4,0,.13,0,.26-.01.4,0,.14-.02.27-.05.41-.14.02-.28.04-.44.05-.16,0-.3.01-.44.01-.13,0-.27,0-.43-.01-.16,0-.31-.02-.44-.05Z"/>
    <path class="cls-9" d="m20.48,131.6c.11-.02.22-.04.34-.05.11-.01.24-.02.37-.02s.26,0,.36.02c.1.01.21.03.32.05.02.04.05.1.07.17.02.08.04.16.05.24s.03.17.04.25c.01.08.02.15.03.2.08-.12.18-.24.29-.36s.24-.23.39-.32c.15-.1.31-.17.5-.23.18-.06.39-.09.61-.09.7,0,1.23.19,1.59.58.36.38.53.99.53,1.81v3.96c-.29.05-.57.07-.85.07s-.56-.02-.85-.07v-3.5c0-.43-.07-.76-.2-1-.13-.23-.36-.35-.69-.35-.14,0-.28.02-.42.06-.14.04-.27.12-.39.23-.12.12-.21.28-.28.49-.07.21-.11.48-.11.82v3.25c-.29.05-.57.07-.85.07s-.56-.02-.85-.07v-6.2Z"/>
    <path class="cls-25" d="m30.62,133.72c0-.19-.03-.35-.1-.47s-.15-.21-.26-.28c-.11-.07-.25-.11-.41-.14-.16-.02-.35-.04-.55-.04-.43,0-.89.08-1.38.25-.11-.21-.2-.4-.25-.59-.06-.18-.08-.4-.08-.66.35-.12.7-.21,1.06-.26.35-.06.68-.08.98-.08.83,0,1.48.2,1.95.6.47.4.7,1.04.7,1.92v3.6c-.28.09-.62.17-1.02.25-.4.08-.85.12-1.36.12-.41,0-.78-.04-1.12-.11-.34-.07-.63-.19-.88-.36s-.43-.38-.56-.65c-.13-.26-.2-.59-.2-.97s.08-.71.25-.97c.16-.26.38-.47.64-.62s.55-.27.87-.34c.32-.07.64-.1.96-.1.23,0,.49.01.77.04v-.14Zm-.89-4.55c.32-.05.68-.07,1.08-.07.21,0,.39,0,.53.02.15.01.3.03.46.05l-1.81,1.48c-.1.02-.23.03-.37.05-.14.02-.3.02-.46.02-.26,0-.52-.02-.78-.07l1.34-1.48Zm.89,5.78c-.1-.02-.2-.03-.31-.04-.11-.01-.21-.02-.3-.02-.39,0-.7.07-.93.21-.23.14-.34.37-.34.68,0,.21.04.37.13.48.09.11.19.19.32.25s.26.08.4.1c.14.01.26.02.37.02.12,0,.24,0,.36-.03.12-.02.22-.04.31-.05v-1.58Z"/>
    <path class="cls-5" d="m33.79,131.6c.12-.02.23-.04.34-.05s.23-.02.35-.02c.12,0,.24,0,.35.02.12.02.23.04.34.06.02.04.05.1.07.17s.04.16.05.24.03.17.04.25c.01.08.02.15.03.21.18-.25.39-.47.65-.67.26-.2.58-.29.96-.29.08,0,.17,0,.28.01s.18.02.23.04c.02.08.03.17.04.28,0,.1.01.21.01.32,0,.14,0,.28-.02.44-.01.16-.03.31-.07.46-.09-.02-.19-.02-.29-.02h-.2c-.14,0-.29.01-.46.04-.17.03-.33.1-.48.22s-.28.3-.38.54-.15.58-.15,1.01v2.95c-.14.02-.29.04-.43.05-.14,0-.28.01-.42.01s-.27,0-.41-.01c-.14,0-.29-.02-.44-.05v-6.22Z"/>
    <path class="cls-15" d="m38.95,132.9h-.8c-.02-.1-.04-.21-.05-.33-.01-.12-.02-.23-.02-.33,0-.22.02-.43.07-.64h2.47v6.2c-.29.05-.57.07-.84.07s-.54-.02-.83-.07v-4.91Zm-.25-2.34c-.05-.27-.07-.54-.07-.8s.02-.52.07-.8c.14-.02.28-.04.44-.05.16-.01.3-.02.43-.02.14,0,.28,0,.44.02s.31.03.44.05c.02.14.04.27.05.4,0,.13.01.27.01.4,0,.13,0,.26-.01.4,0,.14-.02.27-.05.41-.14.02-.28.04-.44.05-.16,0-.3.01-.44.01-.13,0-.27,0-.43-.01-.16,0-.31-.02-.44-.05Z"/>
    <path class="cls-16" d="m45.4,133.72c0-.19-.03-.35-.1-.47s-.15-.21-.26-.28c-.11-.07-.25-.11-.41-.14-.16-.02-.35-.04-.55-.04-.43,0-.89.08-1.38.25-.11-.21-.2-.4-.25-.59-.06-.18-.08-.4-.08-.66.35-.12.7-.21,1.06-.26.35-.06.68-.08.98-.08.83,0,1.48.2,1.95.6.47.4.7,1.04.7,1.92v3.6c-.28.09-.62.17-1.02.25-.4.08-.85.12-1.36.12-.41,0-.78-.04-1.12-.11-.34-.07-.63-.19-.88-.36s-.43-.38-.56-.65c-.13-.26-.2-.59-.2-.97s.08-.71.25-.97c.16-.26.38-.47.64-.62s.55-.27.87-.34c.32-.07.64-.1.96-.1.23,0,.49.01.77.04v-.14Zm0,1.24c-.1-.02-.2-.03-.31-.04-.11-.01-.21-.02-.3-.02-.39,0-.7.07-.93.21-.23.14-.34.37-.34.68,0,.21.04.37.13.48.09.11.19.19.32.25s.26.08.4.1c.14.01.26.02.37.02.12,0,.24,0,.36-.03.12-.02.22-.04.31-.05v-1.58Z"/>
    <path class="cls-11" d="m51.2,131.6c.11-.02.22-.04.34-.05.11-.01.24-.02.37-.02s.26,0,.36.02c.1.01.21.03.32.05.02.04.05.1.07.17.02.08.04.16.05.24s.03.17.04.25c.01.08.02.15.03.2.08-.12.18-.24.29-.36s.24-.23.39-.32c.15-.1.31-.17.5-.23.18-.06.39-.09.61-.09.7,0,1.23.19,1.59.58.36.38.53.99.53,1.81v3.96c-.29.05-.57.07-.85.07s-.56-.02-.85-.07v-3.5c0-.43-.07-.76-.2-1-.13-.23-.36-.35-.69-.35-.14,0-.28.02-.42.06-.14.04-.27.12-.39.23-.12.12-.21.28-.28.49-.07.21-.11.48-.11.82v3.25c-.29.05-.57.07-.85.07s-.56-.02-.85-.07v-6.2Z"/>
    <path class="cls-7" d="m60.87,137.95c-.5,0-.94-.08-1.31-.25-.37-.16-.68-.39-.92-.68s-.43-.63-.55-1.03c-.12-.39-.19-.82-.19-1.27s.06-.88.19-1.28c.12-.4.31-.75.55-1.04s.55-.52.92-.69.81-.25,1.31-.25.94.08,1.32.25.69.4.94.69c.25.29.43.64.55,1.04.12.4.18.83.18,1.28s-.06.88-.18,1.27c-.12.39-.3.73-.55,1.03-.25.29-.56.52-.94.68-.38.16-.82.25-1.32.25Zm0-1.3c.45,0,.77-.17.97-.5.2-.33.29-.81.29-1.43s-.1-1.1-.29-1.43c-.2-.33-.52-.5-.97-.5s-.76.17-.95.5c-.2.33-.29.81-.29,1.43s.1,1.1.29,1.43c.2.33.51.5.95.5Z"/>
    <path class="cls-1" d="m65.21,131.6c.12-.02.23-.04.34-.05.11-.01.23-.02.35-.02.12,0,.24,0,.35.02.12.02.23.04.34.06.02.04.05.1.07.17.02.08.04.16.05.24.02.08.03.17.04.25.01.08.02.15.03.21.18-.25.39-.47.65-.67.26-.2.58-.29.96-.29.08,0,.17,0,.28.01.1,0,.18.02.23.04.02.08.03.17.04.28,0,.1.01.21.01.32,0,.14,0,.28-.02.44s-.03.31-.07.46c-.09-.02-.19-.02-.29-.02h-.2c-.14,0-.29.01-.46.04-.17.03-.33.1-.48.22-.15.12-.28.3-.38.54-.1.24-.15.58-.15,1.01v2.95c-.14.02-.29.04-.43.05-.14,0-.28.01-.42.01s-.27,0-.41-.01c-.14,0-.29-.02-.44-.05v-6.22Z"/>
    <path class="cls-17" d="m73.57,129.03c.14-.02.29-.04.43-.05.14,0,.28-.01.41-.01s.28,0,.42.01c.14,0,.29.02.43.05v8.57c-.38.11-.76.2-1.15.26-.39.06-.86.09-1.41.09-.42,0-.83-.06-1.22-.17-.39-.12-.73-.3-1.03-.55-.3-.25-.53-.58-.7-.98-.17-.4-.26-.89-.26-1.46,0-.46.07-.89.22-1.29.15-.4.36-.75.64-1.05.28-.3.61-.53,1-.7.39-.17.83-.26,1.31-.26.14,0,.29,0,.45.02.16.01.31.04.45.08v-2.54Zm0,3.85c-.16-.04-.29-.07-.39-.08-.1-.01-.23-.02-.38-.02-.26,0-.49.05-.69.16-.2.11-.36.25-.49.43-.13.18-.22.39-.28.64-.06.24-.09.5-.09.76,0,.33.04.61.12.83.08.23.19.41.33.55.14.14.31.23.5.29.19.06.4.09.62.09.14,0,.26,0,.37-.02.11-.01.24-.04.37-.08v-3.56Z"/>
    <path class="cls-13" d="m78.26,135.22c.03.48.2.83.5,1.04s.7.32,1.2.32c.27,0,.55-.03.83-.08s.55-.13.81-.22c.09.16.16.35.23.58.06.22.1.46.11.72-.62.24-1.33.36-2.11.36-.58,0-1.07-.08-1.48-.24-.41-.16-.75-.38-1.01-.67s-.45-.62-.58-1.01c-.12-.39-.19-.82-.19-1.28s.06-.88.19-1.28c.13-.4.32-.75.57-1.04s.56-.53.94-.7.81-.26,1.3-.26c.43,0,.82.08,1.15.23.34.15.62.36.86.62.24.26.41.58.53.94s.18.75.18,1.17c0,.15,0,.3-.02.45-.01.15-.03.27-.04.35h-3.98Zm2.44-1.19c-.02-.38-.12-.69-.32-.93-.2-.24-.47-.35-.82-.35-.4,0-.7.11-.91.34s-.33.54-.37.95h2.42Z"/>
    <path class="cls-26" d="m84.85,135.1c-.45-.13-.8-.32-1.05-.57s-.38-.63-.38-1.13c0-.61.22-1.08.65-1.43.44-.34,1.03-.52,1.78-.52.31,0,.62.03.92.08.3.06.61.14.92.25-.02.21-.06.42-.12.65-.06.22-.14.42-.23.59-.19-.08-.4-.15-.64-.21-.23-.06-.48-.09-.73-.09-.27,0-.48.04-.64.13-.15.08-.23.22-.23.4s.05.3.16.37c.11.07.26.14.46.2l.68.2c.22.06.43.14.61.23.18.09.33.21.46.34.13.14.23.3.3.5.07.2.11.44.11.73s-.06.57-.19.83-.3.48-.54.67c-.24.19-.52.34-.86.44-.34.11-.72.16-1.14.16-.19,0-.37,0-.53-.02s-.31-.03-.46-.06c-.15-.03-.29-.06-.44-.1-.14-.04-.3-.09-.47-.16.02-.22.05-.43.11-.65.06-.22.14-.43.23-.64.26.1.51.18.75.23.24.05.48.08.74.08.11,0,.23,0,.37-.03.13-.02.25-.06.37-.11.11-.05.21-.12.28-.2.08-.08.11-.19.11-.33,0-.19-.06-.33-.17-.41s-.28-.16-.49-.22l-.74-.22Z"/>
    <path class="cls-27" d="m89.34,132.9h-.78l-.06-.24,2.24-2.87h.28v1.81h1.45c.02.12.04.23.05.32s.01.2.01.3c0,.11,0,.22-.01.32,0,.1-.02.22-.05.35h-1.45v2.44c0,.25.02.45.06.6.04.15.1.27.17.36s.17.15.28.18.24.05.4.05c.12,0,.24,0,.35-.03.12-.02.22-.04.31-.05.06.15.1.31.12.47.02.16.04.31.04.44,0,.09,0,.16,0,.22,0,.06,0,.12-.02.17-.37.09-.75.13-1.14.13-.73,0-1.28-.17-1.67-.51-.38-.34-.58-.89-.58-1.66v-2.81Z"/>
    <path class="cls-10" d="m94.1,132.9h-.8c-.02-.1-.04-.21-.05-.33-.01-.12-.02-.23-.02-.33,0-.22.02-.43.07-.64h2.47v6.2c-.29.05-.57.07-.84.07s-.54-.02-.83-.07v-4.91Zm-.25-2.34c-.05-.27-.07-.54-.07-.8s.02-.52.07-.8c.14-.02.28-.04.44-.05s.3-.02.43-.02c.14,0,.28,0,.44.02s.31.03.44.05c.02.14.04.27.05.4,0,.13.01.27.01.4,0,.13,0,.26-.01.4,0,.14-.02.27-.05.41-.14.02-.28.04-.44.05s-.3.01-.44.01c-.13,0-.27,0-.43-.01s-.31-.02-.44-.05Z"/>
    <path class="cls-19" d="m97.45,131.6c.11-.02.22-.04.34-.05s.24-.02.37-.02.26,0,.36.02.21.03.32.05c.02.04.05.1.07.17.02.08.04.16.05.24.02.08.03.17.04.25s.02.15.03.2c.08-.12.18-.24.29-.36.11-.12.24-.23.39-.32.15-.1.31-.17.5-.23.19-.06.39-.09.61-.09.7,0,1.23.19,1.59.58.36.38.53.99.53,1.81v3.96c-.29.05-.57.07-.85.07s-.56-.02-.85-.07v-3.5c0-.43-.07-.76-.2-1-.13-.23-.36-.35-.69-.35-.14,0-.28.02-.42.06s-.27.12-.39.23c-.12.12-.21.28-.28.49s-.11.48-.11.82v3.25c-.29.05-.57.07-.85.07s-.56-.02-.85-.07v-6.2Z"/>
    <path class="cls-23" d="m107.59,133.72c0-.19-.03-.35-.1-.47s-.15-.21-.26-.28c-.11-.07-.25-.11-.41-.14-.16-.02-.35-.04-.55-.04-.43,0-.89.08-1.38.25-.11-.21-.2-.4-.25-.59-.06-.18-.08-.4-.08-.66.35-.12.7-.21,1.06-.26.35-.06.68-.08.98-.08.83,0,1.48.2,1.95.6.47.4.7,1.04.7,1.92v3.6c-.28.09-.62.17-1.02.25-.4.08-.85.12-1.36.12-.41,0-.78-.04-1.12-.11s-.63-.19-.88-.36-.43-.38-.56-.65c-.13-.26-.2-.59-.2-.97s.08-.71.25-.97.38-.47.64-.62.55-.27.87-.34c.32-.07.64-.1.96-.1.23,0,.49.01.77.04v-.14Zm0,1.24c-.1-.02-.2-.03-.31-.04-.11-.01-.21-.02-.3-.02-.39,0-.7.07-.93.21-.23.14-.34.37-.34.68,0,.21.04.37.13.48.09.11.19.19.32.25s.26.08.4.1c.14.01.26.02.37.02.12,0,.24,0,.36-.03.12-.02.22-.04.31-.05v-1.58Z"/>
  </g>
</svg>