<svg width="132" height="132" viewBox="0 0 132 132" fill="none" xmlns="http://www.w3.org/2000/svg">
<path d="M24.0623 115.5L16.3623 107.8L72.7373 51.425C71.0873 47.575 70.8581 43.2208 72.0498 38.3625C73.2415 33.5042 75.854 29.15 79.8873 25.3C84.7456 20.4417 90.154 17.6 96.1123 16.775C102.071 15.95 106.929 17.4167 110.687 21.175C114.446 24.9333 115.912 29.7917 115.087 35.75C114.262 41.7083 111.421 47.1167 106.562 51.975C102.712 56.0083 98.3581 58.6208 93.4998 59.8125C88.6415 61.0042 84.2873 60.775 80.4373 59.125L73.5623 66L115.362 107.8L107.662 115.5L65.8623 73.975L24.0623 115.5ZM40.2873 68.475L23.7873 51.975C18.8373 47.025 16.3623 41.1125 16.3623 34.2375C16.3623 27.3625 18.8373 21.45 23.7873 16.5L57.8873 50.875L40.2873 68.475Z" fill="url(#paint0_linear_1_74)"/>
<defs>
<linearGradient id="paint0_linear_1_74" x1="65.8623" y1="16.5" x2="65.8623" y2="115.5" gradientUnits="userSpaceOnUse">
<stop stop-color="#D2AB4B"/>
<stop offset="1" stop-color="#FFE4A0"/>
</linearGradient>
</defs>
</svg>
