<svg width="119" height="119" viewBox="0 0 119 119" fill="none" xmlns="http://www.w3.org/2000/svg">
<path d="M61.9792 7.4375C53.2029 7.4375 45.4679 13.2387 42.9888 21.6679C40.3608 20.4779 37.5842 19.8333 34.7083 19.8333C29.4482 19.8333 24.4035 21.9229 20.684 25.6424C16.9646 29.3619 14.875 34.4065 14.875 39.6667C14.8867 44.0589 16.3526 48.3237 19.0436 51.7951C21.7346 55.2665 25.4993 57.7491 29.75 58.8554V94.2083H94.2083V58.8554C102.935 56.5746 109.083 48.6908 109.083 39.6667C109.083 34.4065 106.994 29.3619 103.274 25.6424C99.5548 21.9229 94.5101 19.8333 89.25 19.8333C86.3742 19.8333 83.5975 20.4779 80.9696 21.6679C78.4904 13.2387 70.7554 7.4375 61.9792 7.4375ZM59.5 52.0625H64.4583V86.7708H59.5V52.0625ZM44.625 61.9792H49.5833V86.7708H44.625V61.9792ZM74.375 61.9792H79.3333V86.7708H74.375V61.9792ZM29.75 99.1667V104.125C29.75 105.44 30.2724 106.701 31.2023 107.631C32.1321 108.561 33.3933 109.083 34.7083 109.083H89.25C90.565 109.083 91.8262 108.561 92.7561 107.631C93.6859 106.701 94.2083 105.44 94.2083 104.125V99.1667H29.75Z" fill="url(#paint0_linear_1_78)"/>
<defs>
<linearGradient id="paint0_linear_1_78" x1="61.9792" y1="7.4375" x2="61.9792" y2="109.083" gradientUnits="userSpaceOnUse">
<stop stop-color="#D2AB4B"/>
<stop offset="1" stop-color="#FDE19D"/>
</linearGradient>
</defs>
</svg>
