<svg width="88" height="88" viewBox="0 0 88 88" fill="none" xmlns="http://www.w3.org/2000/svg">
<path d="M48.1083 44.4838C47.3028 45.2894 46.4167 45.4908 45.45 45.088C44.4833 44.6852 44 43.9199 44 42.7921V5.09214C44 3.72269 44.464 2.57397 45.392 1.64597C46.32 0.717972 47.4671 0.255584 48.8333 0.258806H82.6667C84.0361 0.258806 85.1848 0.722805 86.1128 1.65081C87.0408 2.57881 87.5032 3.72592 87.5 5.09214V29.2588C87.5 30.6283 87.036 31.777 86.108 32.705C85.18 33.633 84.0329 34.0954 82.6667 34.0921H58.5L48.1083 44.4838ZM82.425 87.5005C72.0333 87.5005 61.9043 85.1837 52.0378 80.5501C42.1714 75.9166 33.4311 69.7944 25.817 62.1835C18.2029 54.5726 12.0807 45.8323 7.45033 35.9626C2.82 26.093 0.503222 15.9639 0.5 5.57547C0.5 4.12547 0.983333 2.91714 1.95 1.95047C2.91667 0.983805 4.125 0.500472 5.575 0.500472H25.15C26.2778 0.500472 27.2847 0.862972 28.1708 1.58797C29.0569 2.31297 29.5806 3.23936 29.7417 4.36714L32.8833 21.2838C33.0444 22.4116 33.0235 23.4395 32.8205 24.3675C32.6175 25.2955 32.1551 26.1204 31.4333 26.8421L19.8333 38.6838C23.2167 44.4838 27.4458 49.9213 32.5208 54.9963C37.5958 60.0713 43.1944 64.4616 49.3167 68.1671L60.675 56.8088C61.4 56.0838 62.3473 55.5409 63.517 55.18C64.6867 54.8191 65.8338 54.7176 66.9583 54.8755L83.6333 58.2588C84.7611 58.5005 85.6875 59.045 86.4125 59.8925C87.1375 60.7399 87.5 61.7259 87.5 62.8505V82.4255C87.5 83.8755 87.0167 85.0838 86.05 86.0505C85.0833 87.0171 83.875 87.5005 82.425 87.5005Z" fill="#D2AB4B"/>
</svg>
