<svg width="81" height="101" viewBox="0 0 81 101" fill="none" xmlns="http://www.w3.org/2000/svg">
<path d="M40.4997 50.5003C43.2268 50.5003 45.5621 49.5285 47.5058 47.5848C49.4495 45.6412 50.4196 43.3074 50.4163 40.5837C50.4163 37.8566 49.4445 35.5212 47.5008 33.5775C45.5572 31.6339 43.2235 30.6637 40.4997 30.667C37.7726 30.667 35.4372 31.6388 33.4935 33.5825C31.5499 35.5262 30.5797 37.8599 30.583 40.5837C30.583 43.3107 31.5548 45.6461 33.4985 47.5898C35.4422 49.5334 37.7759 50.5036 40.4997 50.5003ZM40.4997 100.084C27.1948 88.7621 17.2583 78.2472 10.6902 68.5387C4.12204 58.8303 0.836313 49.8425 0.833008 41.5753C0.833008 29.1795 4.82116 19.3041 12.7975 11.9493C20.7738 4.59442 30.0078 0.916992 40.4997 0.916992C50.9948 0.916992 60.2305 4.59442 68.2068 11.9493C76.1831 19.3041 80.1696 29.1795 80.1663 41.5753C80.1663 49.8392 76.8806 58.827 70.3092 68.5387C63.7377 78.2505 53.8012 88.7654 40.4997 100.084Z" fill="#D2AB4B"/>
</svg>
