<svg width="107" height="107" viewBox="0 0 107 107" fill="none" xmlns="http://www.w3.org/2000/svg">
<path d="M53.4557 8.91699C28.8457 8.91699 8.91699 28.8903 8.91699 53.5003C8.91699 78.1103 28.8457 98.0836 53.4557 98.0836C78.1103 98.0836 98.0836 78.1103 98.0836 53.5003C98.0836 28.8903 78.1103 8.91699 53.4557 8.91699ZM53.5003 89.167C33.7945 89.167 17.8337 73.2062 17.8337 53.5003C17.8337 33.7945 33.7945 17.8337 53.5003 17.8337C73.2062 17.8337 89.167 33.7945 89.167 53.5003C89.167 73.2062 73.2062 89.167 53.5003 89.167ZM55.7295 31.2087H49.042V57.9587L72.4482 72.0024L75.792 66.5187L55.7295 54.6149V31.2087Z" fill="url(#paint0_linear_1_71)"/>
<defs>
<linearGradient id="paint0_linear_1_71" x1="53.5003" y1="8.91699" x2="53.5003" y2="98.0837" gradientUnits="userSpaceOnUse">
<stop stop-color="#D2AB4B"/>
<stop offset="1" stop-color="#D2AB4B"/>
</linearGradient>
</defs>
</svg>
